<?xml version="1.0" encoding="UTF-8"?><svg id="a" xmlns="http://www.w3.org/2000/svg" viewBox="0 0 24 22"><path d="M12,0c-3.15,0-6,2.55-6,5.7s2.6,6.91,6,12.3c3.4-5.39,6-9.15,6-12.3S15.15,0,12,0Zm0,8c-1.1,0-2-.9-2-2s.9-2,2-2,2,.89,2,2-.9,2-2,2Zm8,6h-3.14c-.39,.64-.8,1.31-1.23,2h3.13l.5,1h-4.26l-.34,.54-.29,.46h.56l.86,2h-7.49l.86-2h.48l-.29-.46-.34-.54h-2.04l-1.01-1h2.42c-.43-.69-.85-1.36-1.23-2h-3.13L0,22H24l-4-8Zm-12.79,6H3.24l1.76-3.53,1.52,1.53h1.55l-.86,2Zm8.81-2h3.75l1,2h-3.89l-.86-2Z"/></svg>