<?xml version="1.0" encoding="UTF-8"?><svg id="Capa_1" xmlns="http://www.w3.org/2000/svg" viewBox="0 0 698.04 478.29"><defs><style>.cls-1{fill:#fff;stroke-width:2px;}.cls-1,.cls-2{stroke:#000;stroke-miterlimit:10;}.cls-2{stroke-width:4px;}</style></defs><path d="M59.66,406.03h506.79c23.33,0,46.77,.67,70.09,0,.33,0,.67,0,1,0,15.44,0,15.47-24,0-24H130.75c-23.33,0-46.77-.67-70.09,0-.33,0-.67,0-1,0-15.44,0-15.47,24,0,24h0Z"/><path d="M166.07,442.27h-52.15l18,18v-106.19l-18,18h52.15l-18-18v106.19c0,9.42,8.28,18.44,18,18,9.75-.44,18-7.91,18-18v-106.19c0-9.73-8.25-18-18-18h-52.15c-9.73,0-18,8.25-18,18v106.19c0,9.73,8.25,18,18,18h52.15c9.42,0,18.44-8.28,18-18s-7.91-18-18-18Z"/><path d="M578.95,442.27h-52.15l18,18v-106.19l-18,18h52.15l-18-18v106.19c0,9.42,8.28,18.44,18,18s18-7.91,18-18v-106.19c0-9.73-8.25-18-18-18h-52.15c-9.73,0-18,8.25-18,18v106.19c0,9.73,8.25,18,18,18h52.15c9.42,0,18.44-8.28,18-18s-7.91-18-18-18Z"/><path d="M450.38,226.65c-.27,41.79-28.49,79.35-68.11,92.69-41.28,13.9-87.08,2.09-115.48-31.08-12.28-14.35-20.87-34.71-22.3-53.43-1.66-21.77,3.31-41.54,14.91-59.73,22.49-35.26,67.44-53.26,108.39-45.03,23.44,4.71,43.41,16.04,59.13,33.98,14.89,16.99,23.32,39.7,23.46,62.59,.1,15.44,24.1,15.47,24,0-.33-52.35-35.01-97.76-83.82-115.17-48.81-17.41-106.9-2.95-140.74,36.59s-39.42,97.3-11.49,141.69c28.34,45.03,82.71,66.65,134.49,56.87,49.4-9.33,91.78-49.7,99.8-99.92,1.06-6.65,1.72-13.32,1.76-20.06,.1-15.45-23.9-15.46-24,0Z"/><ellipse class="cls-2" cx="293.81" cy="176.84" rx="12.91" ry="12.39"/><ellipse class="cls-2" cx="345.97" cy="156.11" rx="12.91" ry="12.39"/><ellipse class="cls-2" cx="397.59" cy="176.84" rx="12.91" ry="12.39"/><ellipse class="cls-2" cx="418.66" cy="226.4" rx="12.91" ry="12.39"/><ellipse class="cls-2" cx="272.22" cy="226.4" rx="12.91" ry="12.39"/><ellipse class="cls-2" cx="293.81" cy="275.96" rx="12.91" ry="12.39"/><ellipse class="cls-2" cx="345.97" cy="295.17" rx="12.91" ry="12.39"/><ellipse class="cls-2" cx="397.59" cy="275.96" rx="12.91" ry="12.39"/><path d="M245.09,282.92h-49.52c-15.44,0-15.47,24,0,24h49.52c15.44,0,15.47-24,0-24h0Z"/><path d="M250.88,144.36h-49.52c-15.44,0-15.47,24,0,24h49.52c15.44,0,15.47-24,0-24h0Z"/><path d="M60.19,69.25h506.79c23.33,0,46.77,.67,70.09,0,.33,0,.67,0,1,0,15.44,0,15.47-24,0-24H131.28c-23.33,0-46.77-.67-70.09,0-.33,0-.67,0-1,0-15.44,0-15.47,24,0,24h0Z"/><rect class="cls-1" x="127.09" y="366.22" width="26.34" height="82.42"/><rect class="cls-1" x="539.03" y="365.21" width="26.34" height="82.42"/><path class="cls-2" d="M156.06,44.61v-14.16c-1.02,.19-2.51,.33-4.21,0-5.63-1.09-9.54-6.59-10.54-11.63-.25-1.27-1.35-6.84,2.63-11.63,3.88-4.66,9.62-5.02,10.54-5.06h35.29c.71-.14,1.63-.22,2.63,0,5.09,1.11,8.62,9.05,7.37,15.68-.25,1.35-1.07,5.69-5.27,8.6-4.57,3.16-9.67,2.2-10.54,2.02l.53,16.18h-28.45Z"/><path d="M47.18,52.94C25.3,89.57,10.36,130.65,3.9,172.83c-8.91,58.15-2.57,118.15,19.14,172.9,7.65,19.27,16.86,37.87,27.89,55.44,6.83,10.87,24.14,.85,17.27-10.09-22-35.03-36.82-73.74-43.95-114.58-9.57-54.85-3.48-111.79,16.12-163.8,6.34-16.83,14.53-33.68,24.08-49.66,6.62-11.08-10.67-21.15-17.27-10.09h0Z"/><path d="M650.86,398.87c21.88-36.63,36.82-77.71,43.28-119.89,8.91-58.15,2.57-118.15-19.14-172.9-7.65-19.27-16.86-37.87-27.89-55.44-6.83-10.87-24.14-.85-17.27,10.09,22,35.03,36.82,73.74,43.95,114.58,9.57,54.85,3.48,111.79-16.12,163.8-6.34,16.83-14.53,33.68-24.08,49.66-6.62,11.08,10.67,21.15,17.27,10.09h0Z"/></svg>