<?xml version="1.0" encoding="UTF-8"?><svg id="Capa_1" xmlns="http://www.w3.org/2000/svg" viewBox="0 0 543.9 547.96"><g><path d="M254.5,270.39v-63.86c0-7.72-12-7.73-12,0v63.86c0,7.72,12,7.73,12,0h0Z"/><path d="M244.26,274.63l23.51,24.21c2.29,2.36,6.17,2.22,8.49,0l14.7-14.15c3.82-3.67,11.67-8.75,12.21-14.48s0-11.6,0-17.27v-46.41c0-7.72-12-7.73-12,0v63.86l1.76-4.24-25.16,24.21h8.49l-23.51-24.21c-5.39-5.55-13.87,2.94-8.49,8.49h0Z"/></g><path d="M297.6,211.72c20.08,9.65,37.43,28.1,42.42,50.18,5.52,24.42-5.34,50.75-24.58,66.14-19.5,15.61-47.1,19.26-70,9.31-22.28-9.68-38.47-31.23-41.03-55.46-3.24-30.73,15.58-59.67,43.52-71.78,7.07-3.06,.96-13.4-6.06-10.36-28.33,12.28-48.77,41.18-49.81,72.17-.97,28.88,14.46,56.69,39.16,71.55s56.77,15.14,81.81,.67c24.89-14.38,40.69-41.86,40.32-70.64-.39-30.97-22.43-59.02-49.7-72.13-6.93-3.33-13.02,7.01-6.06,10.36h0Z"/><path d="M363.32,197.52c9.75,12.79,17.48,27.01,22.5,42.3,4.4,13.39,6.78,24.68,6.6,38.16-.03,2.38-.15,4.75-.36,7.12-.1,1.21-.24,2.42-.37,3.62,.3-2.71-.31,1.94-.42,2.57-.94,5.4-2.26,10.74-3.9,15.97-.85,2.71-1.78,5.39-2.8,8.04-.25,.65-1.38,3.46-1.12,2.84,.47-1.11-.28,.64-.31,.7-.39,.89-.79,1.78-1.2,2.66-2.5,5.39-5.32,10.62-8.45,15.67-6.57,10.63-12.89,18.47-22.49,27.52-9,8.48-17.89,14.79-29.68,20.67-22.2,11.09-50.17,14.29-74.58,9.2-25.58-5.34-47.65-17.86-65.3-36.96-8.56-9.25-15.38-19.48-21.09-31.7-4.45-9.52-8.84-24.85-10-35.16-.79-6.99-1.05-14.04-.74-21.06s.9-11.82,2.48-18.88c2.97-13.27,7.05-23.29,13.93-34.66,1.65-2.72,3.4-5.38,5.24-7.98,2.15-3.04,2.48-3.45,4.67-6.07,4.01-4.8,8.34-9.32,12.94-13.54,5.2-4.78,8.19-7.16,13.43-10.79,4.96-3.44,10.13-6.58,15.47-9.41,18.58-9.84,38.71-15.34,59.86-14.16,6.97,.39,8.83,.64,15.35,1.91s13.53,3.14,20.07,5.44c14.17,4.99,27.84,13.04,38.9,23.56,4.82,4.58,9.16,9.6,13.23,14.85s12.8,4.18,16.97,0c5.06-5.06,3.98-11.83,0-16.97-36.33-46.92-102.94-65.16-158.11-43.67-54.55,21.25-95.82,70.71-98.44,130.38-2.74,62.32,36.42,119.7,94.2,141.96,28.53,10.99,61.35,12.39,90.66,3.62,27.63-8.27,52.41-25.36,70.59-47.68,16.49-20.25,29.07-44.51,33.45-70.44,5.16-30.53-2.06-61.41-15.98-88.77-4.12-8.09-8.98-15.75-14.48-22.97-3.92-5.14-10.34-7.86-16.42-4.31-5.07,2.96-8.26,11.23-4.31,16.42Z"/><path d="M88.35,172.69c-.42,.71-.84,1.41-1.26,2.12l18.85-2.43-46.22-54.46v16.97c15.6-15.13,30.9-30.42,45.99-46.04,10.73-11.11-6.22-28.1-16.97-16.97-15.09,15.63-30.39,30.91-45.99,46.04-4.93,4.78-4.15,12.08,0,16.97l46.22,54.46c5.09,6,15.18,3.78,18.85-2.43,.42-.71,.84-1.42,1.26-2.12,7.91-13.31-12.83-25.4-20.72-12.11h0Z"/><path d="M105.9,87.91c8.8-7.74,17.92-15.11,26.72-22.86h-16.97l55.52,44.5c4.4,3.53,9.4,4.57,14.54,1.88,11-5.75,21.47-9.85,33.61-13.47,5.48-1.63,8.29-6.15,8.81-11.57l6.56-68.18-8.81,11.57c15.67-3.71,29.17-6.04,45.28-5.76,17.09,.3,31.76,3.39,49.19,8.64l-8.38-8.38,6.41,46.61c.84,6.08,1.12,12.58,2.55,18.55,.33,1.36-2.55-3.42,1.23,3.04,1.07,1.8,2.5,3.24,4.31,4.31,3.55,1.5,3.82,1.61,.81,.34,1.97,.6,3.91,1.72,5.77,2.6,7.32,3.46,14.38,7.4,21.29,11.62,3.37,2.06,8.78,2.41,12.11,0l58.27-42.2h-12.11c2.07,1.5,4.13,3,6.18,4.52,1.18,.87,2.35,1.75,3.52,2.64,.69,.52,1.38,1.05,2.06,1.58-.98-.76-.59-.46,.15,.13,6.11,4.87,12.11,9.85,17.89,15.11,14.76,13.43,28.25,28.28,40,44.42l1.88-14.54-50.11,51.25c-3.6,3.68-4.75,10.05-1.88,14.54,6.52,10.2,12.59,20.66,17.03,31.95,2.12,5.38,5.8,8.31,11.57,8.81l65.43,5.65-11.57-8.81c7.15,31.61,7.09,63.26-1.05,94.4l11.57-8.81-65.13,6.28c-5.62,.54-9.72,3.4-11.57,8.81-3.97,11.57-9.56,22.2-15.94,32.61-3.02,4.92-1.47,10.4,1.88,14.54l44.38,54.91-1.88-14.54c-1.1,1.52-2.22,3.03-3.35,4.53-.36,.48-.73,.95-1.09,1.43-.91,1.19,1.91-2.38,.18-.25-.93,1.15-1.83,2.32-2.76,3.46-4.67,5.77-9.57,11.35-14.64,16.77-14.53,15.51-30.54,29.64-47.84,41.99l14.54,1.88-49.41-44.11c-4.05-3.62-9.71-4.61-14.54-1.88-11,6.22-19.97,10.59-30.81,14.43-5.61,1.99-8.06,5.92-8.81,11.57l-8.33,63.14,8.81-11.57c-5.8,1.65-11.65,3.15-17.56,4.39-2.53,.53-5.06,1.02-7.6,1.46-1.39,.24-2.78,.46-4.17,.68-.48,.07-2.02,.3-.68,.12-5.97,.81-12.01,1.27-18.04,1.34-17.06,.2-32.29-2.36-48.84-7.08l8.81,11.57-5.48-65.86c-.45-5.37-3.42-10.03-8.81-11.57-10.1-2.89-18.44-6.17-27.46-10.37-3.68-1.72-8.5-2.62-12.11,0l-55.16,39.92,14.54,1.88c-26.78-20.88-51.43-44.14-71.73-71.5l-1.88,14.54,43.88-54.64c3.41-4.24,4.75-9.56,1.88-14.54-3.78-6.56-7.39-13.19-10.5-20.1-2.79-6.2-4.45-12.48-11.87-14.2-6.76-1.57-13.74-2.51-20.56-3.75l-44.76-8.17,8.38,8.38c-7.49-31.2-6.98-61.92,.77-92.84l-11.57,8.81,64.21-2.54c5.4-.21,10.01-3.59,11.57-8.81,3.84-12.85,9.28-24.76,16.06-36.31,7.83-13.35-12.91-25.44-20.72-12.11s-14.07,27.31-18.48,42.05l11.57-8.81-64.21,2.54c-5.19,.21-10.26,3.57-11.57,8.81-8.84,35.27-9.26,70.22-.77,105.6,.9,3.76,4.47,7.67,8.38,8.38l66.48,12.13-8.38-8.38c4.3,10.9,9.39,21.29,15.25,31.44l1.88-14.54-43.88,54.64c-3.06,3.81-5.23,10.03-1.88,14.54,21.61,29.13,46.94,54.11,75.48,76.36,3.91,3.05,9.93,5.21,14.54,1.88l55.16-39.92h-12.11c10.78,5.03,21.74,9.52,33.19,12.79l-8.81-11.57,5.48,65.86c.45,5.37,3.42,10.04,8.81,11.57,17.84,5.09,36.62,8.15,55.22,7.94,18.39-.22,36.8-3.82,54.43-8.84,5.64-1.61,8.1-6.19,8.81-11.57l8.33-63.14-8.81,11.57c12.65-4.48,24.87-10.24,36.54-16.85l-14.54-1.88,49.41,44.11c3.69,3.29,10.1,5.05,14.54,1.88,29.85-21.32,56.56-46.81,78.11-76.54,3.34-4.61,1.27-10.65-1.88-14.54l-44.38-54.91,1.88,14.54c7.46-12.17,13.72-24.81,18.36-38.34l-11.57,8.81,65.13-6.28c5.27-.51,10.15-3.37,11.57-8.81,9.28-35.53,9.13-71.44,1.05-107.16-1.24-5.46-6.44-8.37-11.57-8.81l-65.43-5.65,11.57,8.81c-5.24-13.3-11.77-25.66-19.45-37.68l-1.88,14.54,50.11-51.25c3.41-3.49,4.99-10.27,1.88-14.54-21.92-30.13-48.31-55.21-78.41-77-3.14-2.27-8.97-2.27-12.11,0l-58.27,42.2h12.11c-9.87-6.03-20.07-11.3-30.73-15.77l8.38,8.38-8.99-65.33c-.56-4.05-4.76-7.29-8.38-8.38C308.78,4.11,289.97,.35,271.16,.02c-17.36-.3-34.82,2.63-51.66,6.62-5.5,1.3-8.31,6.39-8.81,11.57l-6.56,68.18,8.81-11.57c-13.56,4.04-26.8,9.33-39.34,15.89l14.54,1.88-55.52-44.5c-5.32-4.26-11.65-4.68-16.97,0-8.8,7.74-17.92,15.11-26.72,22.86-4.87,4.28-4.38,12.59,0,16.97,4.83,4.83,12.09,4.29,16.97,0h0Z"/><path d="M243.5,344.92v62.13c0,6.43,10,6.45,10,0v-62.13c0-6.43-10-6.45-10,0h0Z"/><path d="M292.46,344.84v62.13c0,6.43,10,6.45,10,0v-62.13c0-6.43-10-6.45-10,0h0Z"/></svg>