<?xml version="1.0" encoding="UTF-8"?><svg id="a" xmlns="http://www.w3.org/2000/svg" xmlns:xlink="http://www.w3.org/1999/xlink" viewBox="0 0 1884.45 482.17"><defs><style>.e{fill:url(#d);}.f{fill:#fff;}</style><linearGradient id="d" x1="1464.96" y1="241.09" x2="1884.45" y2="241.09" gradientTransform="matrix(1, 0, 0, 1, 0, 0)" gradientUnits="userSpaceOnUse"><stop offset="0" stop-color="#000"/><stop offset="1" stop-color="#a52323"/></linearGradient></defs><path id="b" class="f" d="M1371.5,190.1c9.75-18.48,24.87-29.28,35-35h99l26-30H805.5l-8,30h67c.44-.05,3.63-.36,6,2,1.53,1.52,1.9,3.32,2,4l-30,114h-110l-48-49c.93,.02,2.32,.03,4,0,8.68-.16,35.91-1,61-19,8.74-6.27,16.9-11.48,22-22,1.87-3.85,6.72-13.86,3-24-1.82-4.96-5.01-8.08-8-11-2.53-2.47-6.67-5.92-18-11-11.12-4.98-20.12-7.49-22-8,0,0-16.6-4.54-32-6-21.13-2-263.58-2.14-595,0-13.06,3.68-22.75,8.98-29,13-5.04,3.25-11.46,7.45-18,15-6.11,7.06-9.34,13.59-11,17-1.89,3.88-3.88,8.05-5,14-.83,4.42-1.68,8.92,0,14,.56,1.71,1.7,4.34,7,10,3.28,3.5,8.19,8.21,15,13,44.68,22.87,61.01,30.9,64,32,.18,.07,1.02,.37,2,1,.31,.2,5.08,3.37,5,8-.05,2.91-2.27,5.25-4.19,7.2-1.33,1.35-4.68,4.8-6.81,4.8H13.5l-9,31c102.59-.28,143.4-.22,153,0,.37,0,1.06,.03,2,0,12.11-.32,21.52-6.39,30-12,2.97-1.96,5.04-3.52,7-5,7.11-5.36,12.13-9.14,17-15,3.05-3.67,6.65-8.09,9-15,.9-2.65,2.8-8.42,2-16-.23-2.23-1-7.42-4-13-2.79-5.19-6.45-8.71-20-18-15.09-10.35-20-13-20-13-10.72-6.21-25.2-14.42-43-24-.73-.24-2-.79-3-2-2.24-2.71-1.18-6.37-1-7,.88-3.04,3.17-4.69,5-6,2.52-1.81,5.08-2.62,7-3h139c-18.64,68.01-31.73,115.67-33,120-.05,.17-.53,1.79-1,4-.72,3.37-1.25,5.83-1,8,.43,3.67,3.04,6.14,5,8,7.17,6.78,17.25,7.79,21,8l304,1,16-63c35.78,36.16,51.31,52.41,54,56,.26,.35,1.25,1.71,3,3,3.18,2.34,6.88,2.96,10,3h257l37-138c.08-1.14,.33-2.54,1-4,2.37-5.16,7.93-6.72,9-7h88l-33,122c-.26,.94-.63,2.32-1,4-1.02,4.61-1.53,6.91-1,9,.59,2.35,2.17,3.66,5,6,5.7,4.72,11.6,6.42,14,7,2.3,.56,5.74,1.16,10,1h428l-3-29h-90c-.46,.02-1.15,.04-2,0-6.87-.33-13.93-4.16-18-10-2.7-3.88-3.31-7.53-4-12-1.58-10.21,.2-18.45,1-22,5.3-23.49,7.96-35.23,11-41Zm-879,83h-145s-1.31,.13-3,0c-1.77-.14-2.93-.25-4-1-.43-.3-1.47-1.14-2-3l11-37h119l9-33h-119c2.67-11.33,5.33-22.67,8-34,.29-.93,.85-2.45,2-4,0,0,2.4-3.24,7-5,5.25-2,65.63-1.98,148,0l-31,117Zm184-92c-1.97,4.14-4.73,6.39-8,9-2.84,2.26-11.07,8.65-23,9-.89,.03-1.53,.01-2,0-6.69-.15-17.53-.24-36,0l12-43,35-1c13.27,1.31,23,8.36,24,16,.59,4.45-1.75,9.47-2,10Zm635-22c-5.92,4.56-15.33,11.81-24,22-4.53,5.33-10.34,12.27-15,23-1.95,4.5-5.24,12.25-6,23-.29,4.01-.77,11.75,2,21,3.79,12.69,11.51,20.93,16,25h-168.17s-1.31,.13-3,0c-1.77-.14-2.93-.25-4-1-.43-.3-1.47-1.14-2-3l11-37h119l9-33h-119c2.67-11.33,5.33-22.67,8-34,.29-.93,.85-2.45,2-4,0,0,2.4-3.24,7-5,5.25-2,65.63-1.98,148,0h23.17c-.97,.71-2.36,1.73-4,3Z"/><g id="c"><path class="f" d="M31,381.51c.58,.33,.86,.7,1,1,.73,1.49-.43,3.95-3,6H4l-4,11c23.12-.14,33.13-.12,35,0,.11,0,.49,.03,1,0,2.2-.14,3.83-1.18,5-2,3.42-2.38,5.84-4.83,6-5,2.67-2.74,4.01-4.11,5-6,1.9-3.63,1.98-7.07,2-9,.03-2.34,.11-4.49-1-7-1.15-2.59-2.94-4.19-4-5l-15-13c-.29-.19-.7-.5-1-1-1.14-1.89-.11-5.25,2-6,.35-.12,1.03-.28,2,0h25l4-11H27c-3.64,2.03-6.27,4.28-8,6-1.8,1.78-4.15,4.16-6,8-1.25,2.61-1.73,4.77-2,6-.66,3.07-1.29,5.97,0,9,.6,1.41,1.43,2.41,2,3l18,15"/><path class="f" d="M1420.78,381.51c.58,.33,.86,.7,1,1,.73,1.49-.43,3.95-3,6h-25l-4,11c23.12-.14,33.13-.12,35,0,.11,0,.49,.03,1,0,2.2-.14,3.83-1.18,5-2,3.42-2.38,5.84-4.83,6-5,2.67-2.74,4.01-4.11,5-6,1.9-3.63,1.98-7.07,2-9,.03-2.34,.11-4.49-1-7-1.15-2.59-2.94-4.19-4-5l-15-13c-.29-.19-.7-.5-1-1-1.14-1.89-.11-5.25,2-6,.35-.12,1.03-.28,2,0h25l4-11h-39c-3.64,2.03-6.27,4.28-8,6-1.8,1.78-4.15,4.16-6,8-1.25,2.61-1.73,4.77-2,6-.66,3.07-1.29,5.97,0,9,.6,1.41,1.43,2.41,2,3l18,15"/><polygon class="f" points="350 334.53 332 399.53 353 399.53 370 334.53 350 334.53"/><polygon class="f" points="257.73 334.53 239.73 399.53 260.73 399.53 277.73 334.53 257.73 334.53"/><polygon class="f" points="720.88 334.53 702.88 399.53 723.88 399.53 740.88 334.53 720.88 334.53"/><path class="f" d="M122,334.53h-40c-.55,.25-1.24,.57-2,1-.58,.33-1.68,.98-3,2-1.61,1.25-2.9,2.25-4,4,0,0-.57,.91-1,2-1.62,4.13-10.31,40.15-11,43-.36,.9-.81,2.27-1,4-.12,1.04-.21,1.89,0,3,.36,1.88,1.34,3.16,2,4,.24,.3,.56,.66,1,1,.75,.58,1.5,.86,2,1h40l3-11h-28l3-16h30l2-11h-29l4-16h29l3-11Z"/><g><path class="f" d="M582.94,334.53h-40c-.55,.25-1.24,.57-2,1-.58,.33-1.68,.98-3,2-1.61,1.25-2.9,2.25-4,4,0,0-.57,.91-1,2-1.62,4.13-10.31,40.15-11,43-.36,.9-.81,2.27-1,4-.12,1.04-.21,1.89,0,3,.36,1.88,1.34,3.16,2,4,.24,.3,.56,.66,1,1,.75,.58,1.5,.86,2,1h40l3-11h-28l3-16h30l2-11h-29l4-16h29l3-11Z"/><polygon class="f" points="556 328.53 583 320.53 583 328.53 556 328.53"/></g><path class="f" d="M1269.91,334.53h-40c-.55,.25-1.24,.57-2,1-.58,.33-1.68,.98-3,2-1.61,1.25-2.9,2.25-4,4,0,0-.57,.91-1,2-1.62,4.13-10.31,40.15-11,43-.36,.9-.81,2.27-1,4-.12,1.04-.21,1.89,0,3,.36,1.88,1.34,3.16,2,4,.24,.3,.56,.66,1,1,.75,.58,1.5,.86,2,1h40l3-11h-28l3-16h30l2-11h-29l4-16h29l3-11Z"/><polygon class="f" points="473 335.53 470 346.53 488 346.53 474 399.53 494 399.53 508 346.53 526 346.53 529 335.53 473 335.53"/><path class="f" d="M187,347.53c-1.06-4.98-4.56-7.82-6-9-3.52-2.86-7.2-3.71-9-4h-40l-18,65h23l5-22h2l12,22h25l-18-30c.65,.02,1.31,.02,2,0,1.63-.05,5.9-.23,10-2,1.53-.66,6.87-3.06,10-9,.92-1.74,3.1-5.87,2-11Zm-24,10c-1.16,1.38-2.71,2.27-4,3-.8,.45-1.49,.78-2,1h-11l5-16h10c.4,.24,3.61,2.23,4,6,.33,3.22-1.62,5.55-2,6Z"/><path class="f" d="M1333.85,347.53c-1.06-4.98-4.56-7.82-6-9-3.52-2.86-7.2-3.71-9-4h-40l-18,65h23l5-22h2l12,22h25l-18-30c.65,.02,1.31,.02,2,0,1.63-.05,5.9-.23,10-2,1.53-.66,6.87-3.06,10-9,.92-1.74,3.1-5.87,2-11Zm-24,10c-1.16,1.38-2.71,2.27-4,3-.8,.45-1.49,.78-2,1h-11l5-16h10c.4,.24,3.61,2.23,4,6,.33,3.22-1.62,5.55-2,6Z"/><path class="f" d="M193,334.25l4,57c.21,.51,.53,1.21,1,2,.6,1,2.09,3.47,5,5,3.52,1.85,6.98,1.21,8,1,3.88-.78,6.23-3.14,7-4l40-61h-12l-28,45-3-45h-22Z"/><path class="f" d="M341,335.53h-29c-.72-.05-1.76-.09-3,0-6.55,.48-11.14,3.98-15,7-5.56,4.35-8.74,8.8-11,12-2.11,3-4.32,6.19-6,11-1.69,4.85-1.94,8.79-2,10-.13,2.76-.3,6.04,1,10,.64,1.94,2.51,7.36,8,11,3.14,2.08,6.21,2.75,8,3h32l3-10h-28c-.5-.13-1.27-.4-2-1-1.01-.83-1.68-2.08-2-4-1.11-6.58,1-14,1-14,2.07-7.27,3.26-11.44,7-16,5.59-6.82,8.58-7.91,10-8,.42-.03,.77-.02,1,0h24l3-11Z"/><path class="f" d="M646.24,335.53h-29c-.72-.05-1.76-.09-3,0-6.55,.48-11.14,3.98-15,7-5.56,4.35-8.74,8.8-11,12-2.11,3-4.32,6.19-6,11-1.69,4.85-1.94,8.79-2,10-.13,2.76-.3,6.04,1,10,.64,1.94,2.51,7.36,8,11,3.14,2.08,6.21,2.75,8,3h32l3-10h-28c-.5-.13-1.27-.4-2-1-1.01-.83-1.68-2.08-2-4-1.11-6.58,1-14,1-14,2.07-7.27,3.26-11.44,7-16,5.59-6.82,8.58-7.91,10-8,.42-.03,.77-.02,1,0h24l3-11Z"/><path class="f" d="M804.09,335.53h-29c-.72-.05-1.76-.09-3,0-6.55,.48-11.14,3.98-15,7-5.56,4.35-8.74,8.8-11,12-2.11,3-4.32,6.19-6,11-1.69,4.85-1.94,8.79-2,10-.13,2.76-.3,6.04,1,10,.64,1.94,2.51,7.36,8,11,3.14,2.08,6.21,2.75,8,3h32l3-10h-28c-.5-.13-1.27-.4-2-1-1.01-.83-1.68-2.08-2-4-1.11-6.58,1-14,1-14,2.07-7.27,3.26-11.44,7-16,5.59-6.82,8.58-7.91,10-8,.42-.03,.77-.02,1,0h24l3-11Z"/><path class="f" d="M1050.44,335.53h-29c-.72-.05-1.76-.09-3,0-6.55,.48-11.14,3.98-15,7-5.56,4.35-8.74,8.8-11,12-2.11,3-4.32,6.19-6,11-1.69,4.85-1.94,8.79-2,10-.13,2.76-.3,6.04,1,10,.64,1.94,2.51,7.36,8,11,3.14,2.08,6.21,2.75,8,3h32l3-10h-28c-.5-.13-1.27-.4-2-1-1.01-.83-1.68-2.08-2-4-1.11-6.58,1-14,1-14,2.07-7.27,3.26-11.44,7-16,5.59-6.82,8.58-7.91,10-8,.42-.03,.77-.02,1,0h24l3-11Z"/><path class="f" d="M433,348.52c-3.13-7.73-10.21-11.14-12-12-12.79-6.15-26.16,.57-29,2-4.81,2.42-8.53,5.69-10,7-4.7,4.19-7.41,8.12-8,9-1.59,2.35-4.44,6.66-6,13-.58,2.38-1.36,5.66-1,10,.19,2.24,.65,7.09,4,12,.97,1.43,2.89,3.89,6,6,6.06,4.11,12.44,4.04,16,4,8.75-.1,15.11-3.44,18-5,1.83-.99,9.83-5.48,16-15,4.14-6.39,5.58-12.14,6-14,1.19-5.24,2.47-10.89,0-17Zm-19,8c-1.96,9.29-3.18,15.08-8,23-5.05,8.3-7.94,8.89-9,9-1.23,.13-3.14-.04-5-1-.32-.17-2.7-1.43-4-4-1.35-2.67-.87-5.43,0-9,.74-3.05,2.54-9.93,9-23,.58-1.17,1.67-3.32,4-5,1.02-.73,3.22-2.32,6-2,3.76,.44,6.24,4.13,7,7,.58,2.17,.21,4,0,5Z"/><path class="f" d="M866.4,348.52c-3.13-7.73-10.21-11.14-12-12-12.79-6.15-26.16,.57-29,2-4.81,2.42-8.53,5.69-10,7-4.7,4.19-7.41,8.12-8,9-1.59,2.35-4.44,6.66-6,13-.58,2.38-1.36,5.66-1,10,.19,2.24,.65,7.09,4,12,.97,1.43,2.89,3.89,6,6,6.06,4.11,12.44,4.04,16,4,8.75-.1,15.11-3.44,18-5,1.83-.99,9.83-5.48,16-15,4.14-6.39,5.58-12.14,6-14,1.19-5.24,2.47-10.89,0-17Zm-19,8c-1.96,9.29-3.18,15.08-8,23-5.05,8.3-7.94,8.89-9,9-1.23,.13-3.14-.04-5-1-.32-.17-2.7-1.43-4-4-1.35-2.67-.87-5.43,0-9,.74-3.05,2.54-9.93,9-23,.58-1.17,1.67-3.32,4-5,1.02-.73,3.22-2.32,6-2,3.76,.44,6.24,4.13,7,7,.58,2.17,.21,4,0,5Z"/><path class="f" d="M637,399.53l16-55c.19-.92,.5-1.94,1-3,1.91-4.08,5.34-6.15,7-7h9c.54,.18,1.25,.48,2,1,.99,.68,1.62,1.46,2,2l13,26c.17,.5,.47,1.22,1,2,.42,.61,.65,.94,1,1,.64,.11,1.43-.72,2-2l7-30h14l-16,56c-.18,.48-.49,1.2-1,2-3.35,5.28-10.17,5.93-11,6-1.64,.13-5.63,.53-9-2-.93-.7-1.58-1.45-2-2l-11-22c-.28-.63-.61-1.3-1-2-1.28-2.29-1.53-3-2-3-.21,0-.56,.13-1,1l-8,31h-13Z"/><path class="f" d="M950,399.53l-5-59c-1.13-1.27-4.24-4.43-9-5-6.37-.77-11.39,3.6-13,5-.88,.76-1.55,1.48-2,2l-36,57h12l4-7h27v7h22Zm-42-18l15-26c.54-.82,1.39-1.21,2-1,.78,.27,.93,1.47,1,2,.05,.41,.03,.76,0,1l1,24h-19Z"/><path class="f" d="M1099.56,399.53l-5-59c-1.13-1.27-4.24-4.43-9-5-6.37-.77-11.39,3.6-13,5-.88,.76-1.55,1.48-2,2l-36,57h12l4-7h27v7h22Zm-42-18l15-26c.54-.82,1.39-1.21,2-1,.78,.27,.93,1.47,1,2,.05,.41,.03,.76,0,1l1,24h-19Z"/><path class="f" d="M1388.72,399.53l-5-59c-1.13-1.27-4.24-4.43-9-5-6.37-.77-11.39,3.6-13,5-.88,.76-1.55,1.48-2,2l-36,57h12l4-7h27v7h22Zm-42-18l15-26c.54-.82,1.39-1.21,2-1,.78,.27,.93,1.47,1,2,.05,.41,.03,.76,0,1l1,24h-19Z"/><path class="f" d="M1137,334.53h-19l-14,51c-.31,.71-.7,1.73-1,3-.48,2.07-1.06,4.55,0,7,.98,2.26,2.93,3.46,4,4h26l1-11h-11l14-54Z"/><path class="f" d="M1208,357.5c-.97-9.95-7.87-16.03-9-17-3.39-2.9-6.84-4.3-9-5h-36l-17,64h34c.47,.02,1.16,.04,2,0,7.52-.35,12.9-4.64,17-8,7.77-6.36,11.69-13.45,13-16,3.08-6,5.68-11.04,5-18Zm-21,3c-.56,5.39-2.01,9.34-3,12-1.45,3.89-2.75,6.13-5,10-2.51,4.32-4.39,6.74-7,7-.32,.03-.65,.03-1,0h-9l12-42c1.31-.55,6.61-2.62,10,0,.48,.37,.76,.71,1,1,.86,1.04,2.84,3.96,2,12Z"/></g><path class="e" d="M1717.01,70c-14.59-.31-34.22,1.03-56,8-21.44,6.85-35.92,16.26-54,28-23.87,15.5-39.8,30.12-46,36-11.23,10.65-24.18,23.1-36,42-5.6,8.96-10.04,17.92-12,22-3.09,6.44-7.24,15.08-11,27-1.55,4.93-2.88,9.07-4,15-1.51,8.02-1.73,14.43-2,23-.1,3.08-.2,8.53,0,16,.3,11.01,.68,24.87,4,42,1.99,10.27,2.64,9.36,4,18,1.49,9.47,1.7,16.88,2,29,.28,11.08,.41,16.62,0,23-.65,10.04-1.22,18.89-5,30-1.59,4.68-4.53,13.11-11,22-1.93,2.66-1.82,2.11-8,10-7.18,9.17-7.42,10.01-11,14-4.21,4.68-6.42,6.34-6,7,.31,.49,1.99,.34,16-6,7.92-3.59,14.01-6.54,17-8,10.05-4.9,15.07-7.34,18-9,2.27-1.28,7.93-4.57,18-12,11.6-8.56,20.21-14.91,30-25,10.65-10.98,17.81-21.33,22-28,10.73-17.08,15.72-32.04,19-42,4.16-12.66,2.56-11.58,9-33,5.6-18.6,9.48-28.29,11-32,4.95-12.05,7.42-18.08,12-25,1.74-2.63,10.37-15.39,27-27,13.17-9.19,29.42-16.31,31-14,.62,.9-1.25,3.27-5,8-4.54,5.73-7.61,8.28-11,12-4.18,4.58-6.53,8.38-10,14-3.05,4.94-6.86,11.18-10,20-1.72,4.84-2.54,8.48-4,15-1.08,4.83-2.35,10.46-3,17-.63,6.29-.34,9.84,0,19,.67,18.13,1,27.19,0,32-1.91,9.17-5.64,15.54-10,23-1.98,3.39-7.48,12.35-17,22-2.16,2.19-4.32,4.2-15,13-8.3,6.84-15.46,12.59-21,17,2.17,.04,5.27,.07,9,0,0,0,18.86-.36,39-4,54.21-9.79,91-32,91-32,15.75-9.51,31.96-19.51,47-39,4.82-6.25,17.6-23.15,24-48,3.7-14.35,4.8-29.54,6-46,1.2-16.44,.79-24.38,5-37,3.78-11.33,8.9-19.26,12-24,5.1-7.8,13.88-19.2,28-30-3.8,.61-8.96,1.55-15,3-7.2,1.73-16.57,4.02-28,9-11.67,5.08-20.26,10.67-25,14-6.39,4.48-12.45,8.74-19,16-7.98,8.85-10.91,15.76-13,15-2.06-.75-1.49-8.31,0-14,2.69-10.3,9.03-16.98,11-19,13.94-14.34,28.81-24.24,41-33,13.57-9.76,22.83-16.41,34-27,8.87-8.4,18.71-17.86,28-33,9.66-15.74,13.75-29.51,15-34,3.65-13.13,4.2-23.34,5-38,.71-13.08,.44-24.06,0-32-1.17,1.83-2.92,4.6-5,8-7.53,12.3-8.92,15.78-12,20-4.66,6.39-9.6,9.58-18,15-20.55,13.27-41.8,18.92-51,21-6.52,1.47-13.01,2.51-23,6-1.44,.5-5.4,1.91-17,7-10.96,4.81-16.5,7.24-24,11-13.74,6.9-24.27,13.35-30,17-9.33,5.94-15.91,10.78-23,16-8.33,6.13-14.7,10.82-23,18-7.06,6.11-11.61,10.64-20,19-8.47,8.43-9.93,10.42-11,12-1.67,2.48-4.08,6.49-9,14-2.89,4.41-4.19,6.28-5,6-1.48-.5-.22-7.75,0-9,1.11-6.37,3.18-11.16,5-15,4.29-9.05,8.46-15.63,10-18,5.04-7.72,9.67-13.29,12-16,4.19-4.87,8.19-8.64,16-16,9.36-8.81,14.04-13.22,20-18,2.1-1.69,9.9-7.89,21-15,6.52-4.18,12.34-7.49,17-10l3-3Z"/></svg>