<?xml version="1.0" encoding="UTF-8"?><svg id="Capa_1" xmlns="http://www.w3.org/2000/svg" viewBox="0 0 502.7 554.48"><defs><style>.cls-1,.cls-2{stroke:#000;stroke-miterlimit:10;}.cls-2{stroke-width:.5px;}</style></defs><rect x="227.64" y="481.53" width="47.41" height="38.95"/><rect x="218.74" y="521.97" width="65.22" height="32.51"/><g><path d="M25,251.2c.07-24.68,3.37-46.34,11.1-70.26,6.98-21.58,17.17-41.81,30.97-61.29,3.81-5.38,5.64-7.75,9.64-12.54,3.78-4.53,7.72-8.92,11.82-13.15s8.04-8.02,12.27-11.81c2.11-1.9,4.26-3.75,6.44-5.57,1.17-.98,2.36-1.95,3.55-2.91,.51-.41,1.03-.82,1.54-1.22,1.7-1.35-1.14,.86,.58-.46,9.22-7.07,19-13.43,29.15-19.06,5.21-2.89,10.52-5.57,15.93-8.06s8.67-3.82,14.86-6.08c23.19-8.46,45.8-12.87,69.34-13.76,25.21-.95,47.04,1.6,71.05,8.4,5.81,1.64,11.55,3.51,17.21,5.59,2.71,1,5.4,2.04,8.08,3.14,1.18,.48,3.64,1.55,6.15,2.71,10.8,4.96,21.22,10.74,31.15,17.25,10.19,6.68,17.08,11.99,26.04,20.03,8.78,7.87,16.98,16.39,24.51,25.46,.84,1.01,1.67,2.02,2.49,3.05,.55,.68,1.09,1.37,1.63,2.05-.18-.23-.81-1.06,.05,.06,1.86,2.43,3.67,4.91,5.43,7.41,3.28,4.66,6.4,9.44,9.33,14.32,3.06,5.09,5.94,10.29,8.61,15.6,1.29,2.56,2.54,5.15,3.74,7.76,.55,1.21,1.1,2.42,1.63,3.63,.94,2.13,.45,.96,1.33,3.14,4.45,10.99,8.1,22.29,10.88,33.81,3.02,12.55,4.58,22.51,5.49,34.56,.93,12.34,.91,24.76-.05,37.1s-2.56,22.05-5.6,34.52c-5.76,23.64-13.84,43.17-26.37,63.84-3.07,5.06-6.32,10.01-9.75,14.83-3.66,5.14-5.37,7.34-9.26,12.01-7.55,9.05-15.78,17.55-24.58,25.4s-15.86,13.27-26.11,19.95c-9.95,6.49-20.39,12.23-31.21,17.17-2.78,1.27-4.46,2-6.17,2.69-2.68,1.08-5.37,2.13-8.09,3.12-5.67,2.07-11.42,3.92-17.23,5.55s-11.8,3.06-17.77,4.25c-2.9,.58-5.81,1.1-8.74,1.57-3.76,.6-4.35,.68-7.57,1.04-12.28,1.39-24.67,1.83-37.01,1.33-13.06-.53-22.66-1.69-34.97-4.21-11.66-2.39-23.13-5.65-34.3-9.76-10.49-3.86-20.01-8.25-30.74-14.23-20.9-11.66-37.35-24.39-53.86-41.65-3.93-4.1-7.71-8.34-11.33-12.71-3.81-4.6-5.85-7.25-9.6-12.58-6.83-9.7-12.93-19.9-18.24-30.51s-8.77-19.08-12.55-30.89c-3.72-11.61-6.54-23.51-8.43-35.56-.53-3.39-.53-3.37-.86-6.21s-.64-5.97-.87-8.96c-.49-6.29-.72-12.59-.74-18.9C24.95,235.12-.05,235.09,0,251.2c.15,51.71,16.08,103.13,46.25,145.24,29.8,41.61,71.28,73.38,119.34,91.05,49.04,18.03,104.07,19.81,154.31,5.59,48.38-13.69,92.58-42.32,124.6-81.12s53.38-89.71,57.47-141.87c4.04-51.66-8.53-104.45-35.38-148.77-25.93-42.8-64.84-77.92-110.48-98.59C307.41,.68,252.98-5.55,200.56,5.02c-49.5,9.98-95.71,35.75-130.6,72.2C34.93,113.8,10.98,161.04,3.25,211.17,1.2,224.43,.04,237.78,0,251.2c-.05,16.09,24.95,16.11,25,0Z"/><g><circle class="cls-2" cx="251.35" cy="251.2" r="21.59"/><polygon class="cls-1" points="266.29 223.54 384.73 116.79 281.09 241.46 266.29 223.54"/><polygon points="222.59 261.23 179.81 301.84 201.56 327.22 241.44 279.36 222.59 261.23"/></g></g><g><path d="M245.78,33.69v49.02c0,7.72,12,7.73,12,0V33.69c0-7.72-12-7.73-12,0h0Z"/><g><line x1="360.33" y1="62.14" x2="333.19" y2="106.78"/><path d="M355.15,59.11l-27.14,44.64c-4.02,6.62,6.35,12.65,10.36,6.06l27.14-44.64c4.02-6.62-6.35-12.65-10.36-6.06h0Z"/></g><g><line x1="439.11" y1="140.92" x2="399.72" y2="166.3"/><path d="M436.08,135.74l-39.39,25.39c-6.47,4.17-.46,14.56,6.06,10.36l39.39-25.39c6.47-4.17,.46-14.56-6.06-10.36h0Z"/></g><path d="M470.19,244.34h-50.77c-7.72,0-7.73,12,0,12h50.77c7.72,0,7.73-12,0-12h0Z"/><g><line x1="439.11" y1="361.51" x2="399.72" y2="333.5"/><path d="M442.14,356.33l-39.39-28.01c-6.31-4.48-12.31,5.92-6.06,10.36l39.39,28.01c6.31,4.48,12.31-5.92,6.06-10.36h0Z"/></g><g><line x1="360.33" y1="440.29" x2="333.19" y2="395.65"/><path d="M365.51,437.27l-27.14-44.64c-4.01-6.59-14.39-.57-10.36,6.06l27.14,44.64c4.01,6.59,14.39,.57,10.36-6.06h0Z"/></g><path d="M256.91,467.87v-49.9c0-7.72-12-7.73-12,0v49.9c0,7.72,12,7.73,12,0h0Z"/><g><line x1="141.49" y1="435.92" x2="168.63" y2="395.65"/><path d="M146.67,438.95l27.14-40.27c4.33-6.42-6.06-12.43-10.36-6.06l-27.14,40.27c-4.33,6.42,6.06,12.43,10.36,6.06h0Z"/></g><g><line x1="62.71" y1="361.51" x2="102.97" y2="333.5"/><path d="M65.73,366.69l40.27-28.01c6.3-4.38,.3-14.79-6.06-10.36l-40.27,28.01c-6.3,4.38-.3,14.79,6.06,10.36h0Z"/></g><path d="M32.51,256.34h50.77c7.72,0,7.73-12,0-12H32.51c-7.72,0-7.73,12,0,12h0Z"/><g><line x1="62.71" y1="140.92" x2="102.97" y2="171.56"/><path d="M59.68,146.1l40.27,30.64c6.14,4.68,12.13-5.74,6.06-10.36l-40.27-30.64c-6.14-4.68-12.13,5.74-6.06,10.36h0Z"/></g><g><line x1="141.49" y1="62.14" x2="168.63" y2="106.78"/><path d="M136.31,65.16l27.14,44.64c4.01,6.59,14.39,.57,10.36-6.06l-27.14-44.64c-4.01-6.59-14.39-.57-10.36,6.06h0Z"/></g></g></svg>