<?xml version="1.0" encoding="UTF-8"?><svg id="Capa_1" xmlns="http://www.w3.org/2000/svg" viewBox="0 0 641.05 620.84"><path d="M314.57,339.01l56.44-49.13,81.42-70.88,21.33-18.56c9.5-8.27,9.1-25.59,0-33.94-10.13-9.3-23.81-8.82-33.94,0l-51.94,45.22-86.22,75.05-21.02,18.3c-9.5,8.27-9.1,25.59,0,33.94,10.13,9.3,23.81,8.82,33.94,0h0Z"/><path d="M562.09,234.32c2.43,7.85,4.56,15.77,6.33,23.8,.86,3.89,1.64,7.81,2.33,11.73,.38,2.13,.73,4.26,1.05,6.39,.14,.92,.27,1.83,.41,2.75-.3-1.98-.02-.24,.1,.74,1.93,15.81,2.61,31.77,1.96,47.69-.26,6.25-.71,12.5-1.37,18.72-.15,1.37-.3,2.74-.47,4.11-.11,.9-.19,1.84-.34,2.73,.01-.08,.5-3.47,.18-1.38-.49,3.16-.95,6.32-1.51,9.46-2.12,11.99-5.01,23.85-8.64,35.47-1.8,5.74-3.77,11.43-5.93,17.05-.56,1.45-1.13,2.9-1.71,4.34-.4,.99-2.06,5.53-.48,1.23-1.06,2.88-2.49,5.7-3.79,8.48-5.02,10.77-10.71,21.23-17.03,31.29-3.14,5.01-6.44,9.92-9.89,14.73-1.66,2.31-3.36,4.58-5.07,6.86,2.16-2.88,.19-.24-.81,1.01s-1.91,2.39-2.88,3.57c-7.62,9.27-15.83,18.07-24.54,26.33-4.28,4.05-8.68,7.98-13.2,11.76-2.18,1.82-4.39,3.6-6.61,5.37-.51,.41-1.03,.81-1.55,1.21,.07-.06,2.67-1.99,1.04-.82-1.42,1.02-2.8,2.1-4.21,3.14-9.56,6.99-19.55,13.38-29.89,19.14-5.2,2.89-10.49,5.62-15.85,8.19-2.79,1.33-5.61,2.62-8.44,3.86-1.67,.73-3.35,1.64-.59,.27-1.57,.78-3.3,1.36-4.93,2-11.23,4.43-22.73,8.14-34.43,11.11-5.92,1.5-11.89,2.82-17.89,3.94-2.91,.54-5.83,1.04-8.76,1.5-.72,.11-5.67,.84-3.04,.46,2.43-.34-2.26,.27-3.07,.37-12.72,1.48-25.55,2.1-38.35,1.88-6.29-.11-12.57-.41-18.84-.93-2.99-.25-5.97-.54-8.95-.87-1.37-.16-2.74-.33-4.11-.5-2.15-.25,1.36,.15,1.38,.19-.08-.19-2.97-.43-3.39-.5-12.08-1.84-24.04-4.45-35.78-7.82-5.8-1.66-11.55-3.51-17.23-5.54-2.72-.97-5.43-1.99-8.12-3.04-1.45-.57-2.88-1.15-4.33-1.73-.39-.16-2.5-1.04-.3-.12,2.57,1.08-1.37-.6-1.51-.66-10.9-4.77-21.5-10.23-31.72-16.32-5.08-3.03-10.07-6.22-14.96-9.56-2.35-1.6-4.68-3.24-6.98-4.92-1.24-.9-2.46-1.82-3.69-2.73-.53-.39-1.04-.8-1.57-1.19,1,.73,2.24,1.76,.53,.41-9.25-7.33-18.1-15.12-26.42-23.48-4.31-4.33-8.49-8.8-12.51-13.39-1.87-2.13-3.71-4.3-5.52-6.49-.83-1.01-1.66-2.03-2.48-3.05-.41-.51-.82-1.02-1.23-1.54-.09-.12-2.66-3.48-1.01-1.28,1.46,1.94-.98-1.32-1.37-1.84-.91-1.23-1.82-2.46-2.72-3.7-1.79-2.49-3.54-5-5.25-7.54-3.31-4.91-6.46-9.93-9.46-15.03-6.04-10.3-11.2-20.97-16.11-31.85-1.05-2.32,1.19,3,.27,.62-.24-.62-.51-1.23-.76-1.85-.5-1.23-.99-2.47-1.47-3.71-1.21-3.11-2.36-6.24-3.46-9.39-1.99-5.7-3.8-11.47-5.43-17.28-3.29-11.8-5.75-23.77-7.58-35.88-.07-.43-.4-2.77-.06-.33,.37,2.59-.04-.38-.12-1.02-.17-1.37-.33-2.74-.48-4.11-.35-3.21-.64-6.43-.88-9.66-.47-6.28-.73-12.58-.79-18.88-.12-12.79,.59-25.59,2.15-38.29,.02-.2,.38-1.96,.26-2.05,.04,.03-.51,3.51-.18,1.38,.25-1.58,.46-3.17,.72-4.75,.5-3.15,1.06-6.28,1.66-9.41,1.16-5.99,2.52-11.94,4.06-17.84,3.05-11.67,6.84-23.14,11.35-34.33,.66-1.65,1.7-4.58,.48-1.23,.45-1.24,1.06-2.45,1.59-3.65,1.25-2.83,2.55-5.63,3.9-8.42,2.68-5.55,5.54-11.02,8.58-16.39,5.83-10.3,12.29-20.24,19.34-29.75,.78-1.05,1.59-2.09,2.37-3.15-2.68,3.64,.16-.19,.81-1.01,1.9-2.39,3.85-4.76,5.83-7.09,3.81-4.49,7.77-8.87,11.85-13.12,8.32-8.66,17.17-16.8,26.5-24.36,1.02-.83,2.05-1.64,3.07-2.46,.51-.41,1.03-.81,1.55-1.21-3.2,2.51-1.23,.94-.52,.42,2.46-1.82,4.91-3.65,7.42-5.42,4.83-3.41,9.77-6.68,14.8-9.79,10.11-6.25,20.61-11.87,31.42-16.82,1.41-.64,2.82-1.28,4.24-1.9,1.67-.73,3.36-1.63,.59-.27,2.76-1.35,5.79-2.35,8.66-3.44,5.84-2.21,11.76-4.23,17.73-6.05,11.66-3.56,23.55-6.36,35.57-8.4,1.35-.23,2.7-.45,4.05-.66,.57-.09,5.64-.83,3.04-.46s1.71-.21,2.39-.29c1.83-.22,3.66-.41,5.49-.6,6.24-.62,12.49-1.03,18.76-1.24,15.4-.52,30.74,.29,46.04,2.09-3.03-.36,2.33,.34,3.18,.47,2.05,.32,4.1,.65,6.15,1.01,4.07,.72,8.12,1.52,12.16,2.42,7.71,1.71,15.35,3.74,22.9,6.08,7.2,2.24,14.31,4.76,21.3,7.56,.8,.32,1.61,.65,2.41,.97,.09,.04,2.71,1.15,1.04,.43-1.86-.8,1.43,.64,1.82,.81,.79,.35,1.58,.7,2.36,1.06,3.66,1.66,7.28,3.41,10.88,5.21,8.41,4.22,19.89,2.51,24.63-6.46,4.32-8.17,2.53-20.12-6.46-24.63C384.74,13.72,318.37,3.87,253.34,14.57c-51.67,8.5-100.02,31.31-140.73,63.99-40.36,32.41-71.15,75.28-90.76,123.03C1.24,251.77-4.33,306.98,3.21,360.5c7.35,52.14,29.18,101.38,61.38,142.87,30.84,39.74,71.88,71.83,118.09,91.78,49.32,21.3,103.78,30.06,157.26,23.61,52.35-6.32,102.8-25.26,145.29-56.75,41.38-30.68,75.42-71.02,96.92-118,23.84-52.09,33.32-110.13,25.83-167.04-2.33-17.73-5.86-35.13-11.15-52.22-2.78-8.98-12.69-15.63-22.14-12.57s-15.55,12.51-12.57,22.14h0Z"/><g><polygon points="432.65 120.28 432.65 214.97 529.73 214.97 635.15 104.79 547.6 104.79 548.19 5.92 432.65 120.28"/><path d="M426.65,120.28v94.7c0,3.24,2.75,6,6,6h93.44c1.94,0,4.13,.25,5.95-.52,3.39-1.43,6.3-5.81,8.75-8.36l17.89-18.7,49.2-51.43,31.51-32.93c3.56-3.72,1.04-10.24-4.24-10.24h-87.55l6,6,.52-86.47,.07-12.4c.03-5.23-6.57-7.88-10.24-4.24l-101.07,100.03-14.47,14.32c-5.5,5.44,2.99,13.93,8.49,8.49l101.07-100.03,14.47-14.32-10.24-4.24-.52,86.47-.07,12.4c-.02,3.24,2.76,6,6,6h87.55l-4.24-10.24-92.54,96.72-12.88,13.46,4.24-1.76h-97.08l6,6V120.28c0-7.72-12-7.73-12,0Z"/></g><path d="M442.96,284.26c1.28,5.53,2.31,11.1,3.1,16.72l-1.29-9.57c2.05,15.68,2.09,31.48,.11,47.17l1.29-9.57c-2.14,15.88-6.34,31.34-12.55,46.11l3.63-8.6c-5.98,13.91-13.64,26.96-22.86,38.97l5.63-7.29c-9.22,11.83-19.8,22.44-31.61,31.69l7.29-5.63c-12.25,9.46-25.59,17.31-39.83,23.41l8.6-3.63c-14.53,6.1-29.72,10.26-45.34,12.41l9.57-1.29c-15.5,2.01-31.13,2.01-46.64,.05l9.57,1.29c-15.85-2.13-31.27-6.31-46.02-12.5l8.6,3.63c-13.89-5.95-26.91-13.59-38.91-22.77l7.29,5.63c-12.16-9.45-23.04-20.35-32.48-32.52l5.63,7.29c-9.38-12.28-17.14-25.63-23.15-39.86l3.63,8.6c-5.84-14.11-9.85-28.84-11.99-43.96l1.29,9.57c-2.09-15.69-2.11-31.51-.13-47.21l-1.29,9.57c2.13-15.85,6.31-31.27,12.5-46.02l-3.63,8.6c5.95-13.89,13.59-26.91,22.77-38.91l-5.63,7.29c9.45-12.16,20.35-23.04,32.52-32.48l-7.29,5.63c12.28-9.38,25.63-17.14,39.86-23.15l-8.6,3.63c14.11-5.84,28.84-9.85,43.96-11.99l-9.57,1.29c15.67-2.09,31.45-2.09,47.14-.13l-9.57-1.29c13.52,1.83,26.7,5.11,39.49,9.85,8.32,3.08,20.34,.7,27.74-3.63s14.59-12.93,16.54-21.51c2.1-9.22,1.64-19.56-3.63-27.74-5.33-8.26-12.3-13.13-21.51-16.54-38.65-14.32-81.73-16.09-121.76-6.76-34.55,8.05-66.34,25.62-92.86,48.97s-45.79,53.68-58.15,86.62c-13.06,34.79-14.85,72.44-9.14,108.86,10.43,66.46,57.62,127.98,118.88,155.65,34.1,15.4,71.55,23.45,109.07,19.63,35.48-3.62,70.06-14.54,99.72-34.77,29.11-19.85,54.02-46.12,70.42-77.46,17.73-33.88,27.02-72.7,24.68-111-.81-13.24-2.7-26.53-5.68-39.46-4.23-18.37-26.33-30.96-44.28-25.14-19.2,6.21-29.68,24.6-25.14,44.28h0Z"/></svg>