<?xml version="1.0" encoding="UTF-8"?><svg id="Capa_1" xmlns="http://www.w3.org/2000/svg" viewBox="0 0 802.5 667.33"><defs><style>.cls-1{stroke:#000;stroke-miterlimit:10;}</style></defs><path class="cls-1" d="M700.67,29.17c-14.57,39.85-52,71.01-99.81,83.15,47.81,12.14,85.23,43.32,99.81,83.15,14.57-39.83,52-70.98,99.81-83.15-47.81-12.14-85.23-43.29-99.81-83.15ZM68.53,84.6c-9.71,26.52-34.67,47.34-66.5,55.43,31.9,8.12,56.79,28.88,66.57,55.43,9.71-26.55,34.67-47.34,66.5-55.43-31.84-8.09-56.79-28.88-66.57-55.43ZM367.98,1.45c-9.71,26.55-34.67,47.34-66.54,55.43,31.9,8.12,56.82,28.88,66.6,55.43,9.71-26.55,34.67-47.34,66.47-55.43-31.8-8.09-56.76-28.88-66.54-55.43Zm201.67,166.29H235.17L68.57,323.64l332.69,342.97,332.69-341.03-164.28-157.84Zm-312.52,166.29l101.1,200.05-194.02-200.05h92.92Zm252.14,0l-108.02,213.71-108.02-213.71h216.05Zm-200.94-27.72l92.92-77.41,92.92,77.41h-185.84Zm237.04,27.72h94.58l-196.25,201.18,101.67-201.18Zm80.44-27.72h-84.6l-99.81-83.15h97.88l86.53,83.15Zm-360.83-83.15h96.11l-99.81,83.15h-85.13l88.83-83.15Z"/></svg>