<?xml version="1.0" encoding="UTF-8"?><svg id="Capa_1" xmlns="http://www.w3.org/2000/svg" viewBox="0 0 727.38 560.66"><defs><style>.cls-1{fill:none;stroke:#000;stroke-miterlimit:10;stroke-width:53px;}</style></defs><path d="M427.19,281.04c-.03,4.17-.3,8.31-.82,12.45l1.07-7.98c-1.13,8.03-3.21,15.8-6.26,23.31l3.02-7.17c-2.4,5.67-5.26,11.1-8.69,16.21-.73,1.09-1.5,2.14-2.25,3.21-2.98,4.25,4.67-5.64,1.49-1.95-1.99,2.31-3.98,4.6-6.13,6.76-2,2-4.14,3.84-6.26,5.72-4.74,4.19,5.7-4.05,1.44-1.07-1.07,.75-2.12,1.52-3.21,2.25-5.11,3.43-10.55,6.29-16.21,8.69l7.17-3.02c-7.51,3.05-15.28,5.14-23.31,6.26l7.98-1.07c-8.3,1.04-16.61,1.04-24.91,0l7.98,1.07c-8.03-1.13-15.8-3.21-23.31-6.26l7.17,3.02c-5.67-2.4-11.1-5.26-16.21-8.69-1.09-.73-2.14-1.5-3.21-2.25-4.25-2.98,5.64,4.67,1.95,1.49-2.31-1.99-4.6-3.98-6.76-6.13-2-2-3.84-4.14-5.72-6.26-4.19-4.74,4.05,5.7,1.07,1.44-.75-1.07-1.52-2.12-2.25-3.21-3.43-5.11-6.29-10.55-8.69-16.21l3.02,7.17c-3.05-7.51-5.14-15.28-6.26-23.31l1.07,7.98c-1.04-8.3-1.04-16.61,0-24.91l-1.07,7.98c1.13-8.03,3.21-15.8,6.26-23.31l-3.02,7.17c2.4-5.67,5.26-11.1,8.69-16.21,.73-1.09,1.5-2.14,2.25-3.21,2.98-4.25-4.67,5.64-1.49,1.95,1.99-2.31,3.98-4.6,6.13-6.76,2-2,4.14-3.84,6.26-5.72,4.74-4.19-5.7,4.05-1.44,1.07,1.07-.75,2.12-1.52,3.21-2.25,5.11-3.43,10.55-6.29,16.21-8.69l-7.17,3.02c7.51-3.05,15.28-5.14,23.31-6.26l-7.98,1.07c8.3-1.04,16.61-1.04,24.91,0l-7.98-1.07c8.03,1.13,15.8,3.21,23.31,6.26l-7.17-3.02c5.67,2.4,11.1,5.26,16.21,8.69,1.09,.73,2.14,1.5,3.21,2.25,4.25,2.98-5.64-4.67-1.95-1.49,2.31,1.99,4.6,3.98,6.76,6.13,2,2,3.84,4.14,5.72,6.26,4.19,4.74-4.05-5.7-1.07-1.44,.75,1.07,1.52,2.12,2.25,3.21,3.43,5.11,6.29,10.55,8.69,16.21l-3.02-7.17c3.05,7.51,5.14,15.28,6.26,23.31l-1.07-7.98c.52,4.14,.79,8.28,.82,12.45,.12,15.69,13.72,30.73,30,30s30.12-13.18,30-30c-.18-24.68-7.44-50.29-22.13-70.33-15.83-21.6-36.08-37.2-61.29-46.4-45.92-16.77-102.37-1.59-133.45,36.2-17.44,21.2-27.48,45.44-29.71,72.86-1.99,24.51,4.64,50.53,17.44,71.47s30.75,37.72,52.36,47.41c25.36,11.37,51.76,14.75,79.14,9.46,56.57-10.93,97.22-64,97.63-120.67,.12-15.7-13.88-30.72-30-30s-29.88,13.18-30,30Z"/><circle cx="363.66" cy="281.31" r="60.72"/><polygon points="92.69 39.23 135.49 24.97 205.39 94.16 166.16 115.56 92.69 39.23"/><rect x="341.63" width="40.66" height="60.63"/><polygon points="591.29 24.97 524.95 91.3 557.77 115.56 634.09 39.23 591.29 24.97"/><polygon points="167.59 447.96 92.69 520 135.49 540.69 205.39 471.5 167.59 447.96"/><rect x="341.63" y="501.46" width="40.66" height="59.2"/><polygon points="519.96 469.36 563.47 447.96 634.09 522.85 591.29 540.69 519.96 469.36"/><path class="cls-1" d="M21.36,288.89c11.88-16.17,127.77-168.29,334.69-171.19,217.15-3.04,339.48,160.99,349.37,174.76"/><path class="cls-1" d="M22.66,259.85c11.63,18.42,125.14,191.7,331.54,197.51,216.6,6.1,340.92-177.72,350.99-193.16"/></svg>